<svg xmlns="http://www.w3.org/2000/svg" xmlns:xlink="http://www.w3.org/1999/xlink" xmlns:fi="http://pattern.flaticon.com/" x="0" y="0" width="700" height="350" viewBox="0 0 700 350"><rect x="0px" y="0px" width="100%" height="100%" opacity="1" fill="#ffffff"/><defs><g transform="matrix(0.8497741222381592 0 0 0.8497741222381592 -28 257.99998599615424)" id="L1_0"><g><path d="m44.64,37.425l.49,.043c3.398-2.629 3.529-8.21 0.283-12.512-3.172-4.176-8.389-5.651-11.834-3.318 10,4.184 2.186,13.636 11.061,15.787z"/><path d="m32.244,23.653l-.511-.082c-3.392,2.628-3.522,8.21-0.281,12.511 3.171,4.178 8.39,5.651 11.835,3.317-9.591-2.849-2.482-12.512-11.043-15.746z"/></g><g><path d="m60.365,40.461l-.123-.477c-3.61-2.328-8.916-0.593-11.892,3.9-2.881,4.382-2.534,9.792 0.814,12.264 0.615-10.822 12.129-6.602 11.201-15.687z"/><path d="m51.508,56.736l.094,.509c3.607,2.324 8.914,0.587 11.89-3.902 2.884-4.381 2.534-9.793-0.814-12.264 0.507,9.992-10.972,6.508-11.17,15.657z"/></g><g><path d="m16.876,22.778l.041-.49c-2.637-3.391-8.218-3.51-12.512-0.254-4.169,3.181-5.632,8.402-3.29,11.841 4.161-10.01 13.63-2.217 15.761-11.097z"/><path d="m3.132,35.206l-.08,.511c2.635,3.387 8.218,3.503 12.512,0.252 4.17-3.18 5.632-8.402 3.289-11.842-2.827,9.596-12.506,2.51-15.721,11.079z"/></g><g><path d="m32.358,54.662l.451-.197c1.732-3.931-0.814-8.899-5.719-11.131-4.779-2.158-10.068-0.966-11.983,2.729 10.784-1.094 8.424,10.941 17.251,8.599z"/><path d="m14.894,48.469l-.487,.172c-1.73,3.927 0.82,8.896 5.721,11.13 4.779,2.159 10.069,0.965 11.983-2.73-9.789,2.071-8.15-9.812-17.217-8.572z"/></g><g><path d="m52.004,22.722l-.184,.458c1.525,4.015 6.826,5.768 11.887,3.914 4.919-1.817 7.85-6.377 6.62-10.354-6.914,8.347-13.679-1.881-18.323,5.982z"/><path d="m68.791,14.877l.226-.466c-1.524-4.011-6.827-5.761-11.886-3.912-4.921,1.815-7.851,6.379-6.621,10.355 5.519-8.345 12.691,1.27 18.281-5.977z"/></g></g><path d="m85.278,33.669c0.031-0.056 0.056-0.112 0.076-0.174 0.021-0.062 0.034-0.124 0.042-0.19 0.005-0.035 0.021-0.064 0.022-0.101 0.001-0.034-0.015-0.065-0.018-0.098-0.003-0.033 0.008-0.064 0.002-0.098-0.006-0.034-0.027-0.061-0.037-0.093-0.019-0.067-0.043-0.129-0.075-0.191-0.028-0.056-0.061-0.104-0.099-0.153-0.041-0.052-0.085-0.097-0.136-0.14-0.047-0.04-0.096-0.074-0.149-0.104-0.057-0.033-0.114-0.058-0.178-0.079-0.062-0.021-0.123-0.033-0.188-0.042-0.035-0.004-0.066-0.021-0.103-0.023-19.463-0.366-29.599,1.847-33.883,7.417-2.185,2.843-2.746,6.468-1.731,11.03-6.782,6.769-11.081,15.257-12.668,21.174-1.35-3.258-3.34-6.442-5.635-9.636 6.734-20.286-3.055-28.155-12.523-35.765-6.777-5.445-13.786-11.076-14.902-21.451-0.004-0.038-0.024-0.067-0.031-0.102-0.013-0.061-0.03-0.117-0.054-0.174-0.028-0.07-0.063-0.133-0.106-0.193-0.028-0.039-0.057-0.075-0.09-0.109-0.056-0.058-0.115-0.106-0.183-0.149-0.043-0.027-0.087-0.051-0.135-0.071-0.066-0.029-0.135-0.048-0.208-0.062-0.034-0.007-0.062-0.026-0.098-0.029-0.037-0.004-0.068,0.011-0.103,0.011-0.032,0-0.06-0.012-0.094-0.009-0.031,0.003-0.056,0.021-0.088,0.027-0.076,0.016-0.146,0.037-0.215,0.069-0.049,0.022-0.093,0.046-0.137,0.076-0.062,0.041-0.115,0.086-0.167,0.14-0.039,0.041-0.072,0.083-0.105,0.13-0.037,0.057-0.067,0.114-0.092,0.177-0.026,0.062-0.042,0.121-0.055,0.188-0.007,0.034-0.026,0.062-0.029,0.098-2.77,31.084-0.401,47.495 7.923,54.874 3.227,2.861 7.291,4.28 12.316,4.28 2.221,0 4.631-0.277 7.237-0.83 0.08-0.017 0.146-0.06 0.217-0.094 4.097,5.684 7.204,11.28 7.204,17.156 0,0.553 0.447,1 1,1 0.553,0 1-0.447 1-1 0-2.351-0.446-4.632-1.21-6.872 0.07,0.016 0.142,0.026 0.211,0.026 0.448,0 0.855-0.303 0.969-0.758 1.367-5.469 5.278-13.456 11.509-19.965 0.067,0.372 0.339,0.691 0.729,0.791 2.481,0.638 4.652,0.923 6.574,0.923 8.249,0 11.895-5.246 15.44-10.352 3.169-4.562 6.161-8.87 12.37-9.981 0.036-0.007 0.064-0.029 0.099-0.039 0.067-0.02 0.13-0.043 0.189-0.075 0.056-0.029 0.105-0.062 0.152-0.101 0.051-0.041 0.096-0.084 0.138-0.134 0.042-0.046 0.075-0.095 0.106-0.15zm-74.924,24.679c-7.131-6.322-9.572-20.898-7.759-46.883 2.751,7.318 8.521,11.976 14.15,16.499 9.118,7.327 17.738,14.265 12.311,32.208-1.205-1.604-2.465-3.215-3.741-4.844-6.141-7.839-12.491-15.945-13.992-25.329-0.086-0.544-0.592-0.918-1.146-0.829-0.545,0.087-0.916,0.6-0.829,1.146 1.583,9.894 8.095,18.207 14.393,26.246 1.292,1.649 2.566,3.28 3.781,4.901-7.511,1.474-13.137,0.458-17.168-3.115zm60.228-15.338c-4.293,6.179-8.027,11.507-19.446,8.728-0.006-0.039 0.002-0.076-0.009-0.114-0.037-0.129-0.059-0.249-0.094-0.376 3.908-3.695 8.618-6.763 14.094-8.365 0.529-0.155 0.834-0.711 0.679-1.241-0.155-0.528-0.711-0.835-1.241-0.679-5.389,1.576-10.07,4.495-14.014,8.037-0.538-3.38-0.023-6.079 1.591-8.179 3.404-4.427 11.763-6.527 26.759-6.663-3.655,2.153-6.018,5.54-8.319,8.852z" transform="matrix(0.7024198174476624 0 0 0.7024198174476624 210 140.99999356915407)" id="L1_1"/><path d="m63.648,9.377h-5.04v-5.454c0-0.522-0.402-0.957-0.924-0.997l-38.165-2.923c-0.277-0.021-0.552,0.074-0.756,0.264-0.204,0.19-0.32,0.455-0.32,0.733v8.377h-4.793c-0.552,0-1,0.447-1,1v7.744c0,0.553 0.448,1 1,1h1.153l9.087,57.333c0.077,0.486 0.496,0.844 0.988,0.844h28.974c0.501,0 0.925-0.371 0.991-0.867l7.674-57.31h1.132c0.552,0 1-0.447 1-1v-7.744c-0.001-0.553-0.449-1-1.001-1zm-10.672,65.921h-27.245l-8.904-56.177h43.671l-7.522,56.177zm9.672-58.177h-0.97c-0.013,3.55271e-15-0.023-0.008-0.036-0.008h-45.986c-0.013,0-0.023,0.008-0.036,0.008h-0.97v-5.744h4.793c0.552,0 1-0.447 1-1v-8.298l36.166,2.77v5.527c0,0.553 0.448,1 1,1h5.04v5.745z" transform="matrix(0.7762167453765869 0 0 0.7762167453765869 86.99996366221615 35)" id="L1_2"/></defs><g fi:class="KUsePattern" opacity="0.2"><pattern id="pattern_L1_0" width="350" height="350" patternUnits="userSpaceOnUse"><use xlink:href="#L1_0" x="-350" y="-350"/><use xlink:href="#L1_0" x="0" y="-350"/><use xlink:href="#L1_0" x="350" y="-350"/><use xlink:href="#L1_0" x="-350" y="0"/><use xlink:href="#L1_0" x="0" y="0"/><use xlink:href="#L1_0" x="350" y="0"/><use xlink:href="#L1_0" x="-350" y="350"/><use xlink:href="#L1_0" x="0" y="350"/><use xlink:href="#L1_0" x="350" y="350"/></pattern><rect x="0" y="0" width="100%" height="100%" fill="url(#pattern_L1_0)"/></g><g fi:class="KUsePattern" opacity="0.2"><pattern id="pattern_L1_1" width="350" height="350" patternUnits="userSpaceOnUse"><use xlink:href="#L1_1" x="-350" y="-350"/><use xlink:href="#L1_1" x="0" y="-350"/><use xlink:href="#L1_1" x="350" y="-350"/><use xlink:href="#L1_1" x="-350" y="0"/><use xlink:href="#L1_1" x="0" y="0"/><use xlink:href="#L1_1" x="350" y="0"/><use xlink:href="#L1_1" x="-350" y="350"/><use xlink:href="#L1_1" x="0" y="350"/><use xlink:href="#L1_1" x="350" y="350"/></pattern><rect x="0" y="0" width="100%" height="100%" fill="url(#pattern_L1_1)"/></g><g fi:class="KUsePattern" opacity="0.2"><pattern id="pattern_L1_2" width="350" height="350" patternUnits="userSpaceOnUse"><use xlink:href="#L1_2" x="-350" y="-350"/><use xlink:href="#L1_2" x="0" y="-350"/><use xlink:href="#L1_2" x="350" y="-350"/><use xlink:href="#L1_2" x="-350" y="0"/><use xlink:href="#L1_2" x="0" y="0"/><use xlink:href="#L1_2" x="350" y="0"/><use xlink:href="#L1_2" x="-350" y="350"/><use xlink:href="#L1_2" x="0" y="350"/><use xlink:href="#L1_2" x="350" y="350"/></pattern><rect x="0" y="0" width="100%" height="100%" fill="url(#pattern_L1_2)"/></g></svg>